<svg width="auto" height="28" viewBox="0 0 1138 186" fill="none" xmlns="http://www.w3.org/2000/svg">
<path d="M227 138V47H292.221V60H305.264V73.0001H318.309V112H305.264V125.001H292.221V138H227ZM253.089 125.001H279.177V112H292.221V73.0001H279.177V60H253.089V125.001ZM344.398 138V125.001H331.353V60H344.398V47H409.617V60H422.662V125.001H409.617V138H344.398ZM357.441 125.001H396.573V60H357.441V125.001ZM461.794 138V125.001H448.749V112H435.707V73.0001H448.749V60H461.794V47H527.016V60H474.839V73.0001H461.794V112H474.839V125.001H500.926V99.0002H487.881V86.0002H527.016V138H461.794ZM540.058 138V47H631.367V60H566.148V86.0002H618.324V99.0002H566.148V125.001H631.367V138H540.058ZM665.805 138V125.001H652.76V112H639.715V73.0001H652.76V60H665.805V47H717.98V60H731.024V73.0001H704.937V60H678.848V73.0001H665.805V112H678.848V125.001H704.937V112H731.024V125.001H717.98V138H665.805ZM744.069 138V47H770.156V86.0002H809.288V47H835.378V138H809.288V99.0002H770.156V138H744.069ZM848.422 138V73.0001H861.465V60H874.51V47H913.642V60H926.686V73.0001H939.731V138H913.642V112H874.51V138H848.422ZM874.51 99.0002H913.642V73.0001H900.597V60H887.554V73.0001H874.51V99.0002ZM955.383 138V125.001H981.472V60H955.383V47H1033.65V60H1007.56V125.001H1033.65V138H955.383ZM1046.69 138V47H1072.78V60H1085.82V73.0001H1098.87V86.0002H1111.91V47H1138V138H1111.91V112H1098.87V99.0002H1085.82V86.0002H1072.78V138H1046.69Z" fill="url(#paint0_linear_6646_26088)"/>
<path d="M91.969 2.21918C42.6388 2.21918 2.64886 42.2092 2.64886 91.5393C2.64886 140.869 42.6388 180.859 91.969 180.859C141.299 180.859 181.289 140.869 181.289 91.5393C181.289 42.2092 141.299 2.21918 91.969 2.21918Z" fill="url(#paint1_linear_6646_26088)" stroke="black" stroke-width="3.42357"/>
<path d="M22.2151 85.6974L17.6349 90.2776L13.0547 85.6974L17.6349 81.1172L22.2151 85.6974Z" fill="black"/>
<path d="M170.79 84.6447L166.21 89.2249L161.629 84.6447L166.21 80.0645L170.79 84.6447Z" fill="black"/>
<path d="M10.3223 101.035L28.4349 96.5195L31.6606 109.457L29.0731 110.102L29.7182 112.69L27.1307 113.335L27.7758 115.922L20.0133 117.858L19.3681 115.27L16.7806 115.915L16.1355 113.328L13.548 113.973L10.3223 101.035ZM14.2001 105.565L15.4904 110.74L18.0779 110.095L18.723 112.683L26.4855 110.747L25.8404 108.16L28.4279 107.515L27.1376 102.339L14.2001 105.565Z" fill="black"/>
<path d="M19.0449 129.117L21.2814 127.665L19.829 125.428L31.0115 118.166L32.4639 120.403L34.7004 118.951L41.9624 130.133L39.7259 131.585L41.1783 133.822L29.9958 141.084L28.5434 138.848L26.3069 140.3L19.0449 129.117ZM22.7338 129.901L27.091 136.611L38.2735 129.349L33.9163 122.639L22.7338 129.901Z" fill="black"/>
<path d="M37.0833 152.009L38.7616 149.937L36.6891 148.259L38.3674 146.186L36.2949 144.508L41.3296 138.291L43.402 139.969L45.0802 137.897L47.1527 139.575L48.8309 137.502L59.1931 145.893L57.5149 147.966L49.2251 141.253L47.5469 143.325L45.4745 141.647L40.4398 147.865L42.5122 149.543L40.834 151.615L44.9789 154.972L48.3353 150.827L46.2629 149.149L47.9411 147.076L54.1584 152.111L47.4455 160.4L37.0833 152.009Z" fill="black"/>
<path d="M57.0469 165.285L63.4314 147.744L80.9727 154.128L80.0606 156.634L67.5311 152.074L65.707 157.085L75.7306 160.734L74.8185 163.24L64.7949 159.591L62.9708 164.603L75.5003 169.163L74.5882 171.669L57.0469 165.285Z" fill="black"/>
<path d="M87.4058 172.952V170.286H84.7391V167.619H82.0723V159.619H84.7391V156.952H87.4058V154.285H98.0727V156.952H100.739V159.619H95.406V156.952H90.0725V159.619H87.4058V167.619H90.0725V170.286H95.406V167.619H100.739V170.286H98.0727V172.952H87.4058Z" fill="black"/>
<path d="M110.827 171.07L104.35 153.563L109.352 151.713L112.128 159.216L119.631 156.44L116.855 148.936L121.857 147.086L128.334 164.593L123.332 166.444L120.556 158.941L113.053 161.717L115.829 169.22L110.827 171.07Z" fill="black"/>
<path d="M136.579 159.935L128.188 149.573L130.26 147.895L128.581 145.822L130.655 144.144L128.976 142.072L135.193 137.037L136.872 139.109L138.943 137.431L140.622 139.504L142.695 137.825L151.086 148.188L146.941 151.544L143.585 147.399L137.367 152.434L140.724 156.579L136.579 159.935ZM135.689 150.361L141.907 145.327L138.549 141.182L136.478 142.86L134.799 140.788L132.727 142.466L134.405 144.538L132.333 146.217L135.689 150.361Z" fill="black"/>
<path d="M156.425 141.549L154.189 140.097L157.093 135.624L145.911 128.362L143.006 132.835L140.77 131.383L149.484 117.963L151.721 119.416L148.816 123.889L159.998 131.151L162.903 126.678L165.14 128.13L156.425 141.549Z" fill="black"/>
<path d="M168.753 119.307L150.641 114.791L151.931 109.616L154.519 110.261L155.164 107.673L157.751 108.318L158.396 105.731L160.984 106.376L161.629 103.789L153.866 101.853L155.157 96.6777L173.269 101.194L171.979 106.369L166.804 105.079L166.159 107.666L163.571 107.021L162.926 109.609L160.339 108.964L159.694 111.551L170.044 114.132L168.753 119.307Z" fill="black"/>
<path d="M102.544 35.226C102.015 35.7873 101.568 36.2703 101.228 36.6423C97.2944 35.7836 92.5444 35.3392 88.5531 35.3392C85.5374 35.3392 82.5795 35.5925 79.6998 36.0793C75.3665 34.7839 71.9531 33.5501 67.7995 29.1849C67.4725 28.8412 67.1232 28.4682 66.7546 28.0745C64.6247 25.7998 61.8489 22.8353 58.998 20.8641C57.316 19.7012 55.4131 18.7393 53.4271 18.5566C51.321 18.3628 49.304 19.0648 47.6101 20.8631C44.6197 24.0378 41.9752 30.3415 40.4335 38.4272C38.8977 46.4815 38.4043 56.5685 39.8803 67.7254C37.2557 73.9925 35.8066 80.8722 35.8066 88.0857C35.8066 98.8593 39.0386 108.884 44.5862 117.235C52.9995 135.183 71.2309 147.619 92.3706 147.619C117.019 147.619 137.714 130.713 143.503 107.867C146.716 102.053 148.515 95.5782 148.515 88.7516C148.515 74.858 141.082 62.4941 129.501 54.091C126.162 47.6808 126.014 43.1844 125.853 38.2798C125.823 37.3669 125.792 36.4398 125.74 35.4836C125.688 34.5076 125.662 33.6551 125.637 32.8271C125.618 32.2184 125.6 31.6229 125.572 31.0015C125.512 29.6537 125.406 28.3208 125.099 27.1595C124.786 25.9733 124.219 24.7961 123.114 23.9498C122.016 23.1085 120.639 22.7876 119.096 22.7876C118.092 22.7876 117.08 23.1431 116.184 23.5751C115.257 24.0221 114.284 24.636 113.315 25.3298C111.378 26.7183 109.304 28.5403 107.423 30.321C105.534 32.1093 103.802 33.8927 102.544 35.226Z" fill="url(#paint2_linear_6646_26088)" stroke="black" stroke-width="3.70045"/>
<path fill-rule="evenodd" clip-rule="evenodd" d="M39.5918 102.032C41.0538 107.174 43.304 111.985 46.2035 116.325C54.2975 133.714 71.9265 145.768 92.371 145.768C116.236 145.768 136.265 129.343 141.769 107.181C144.913 101.568 146.666 95.327 146.666 88.7515C146.666 82.1677 144.909 75.9191 141.757 70.3011C139.804 69.6436 138.118 69.6407 136.789 70.38C134.737 71.5206 133.76 74.3016 133.751 78.2799C133.746 80.7986 131.15 82.7862 128.739 82.0574C121.721 79.9361 114.916 80.2166 109.219 83.3835C107.784 84.1814 106.47 85.1346 105.277 86.2269C99.8206 91.2219 87.4574 94.4471 81.7146 89.7847C70.6148 80.7731 58.7106 77.4494 50.0657 82.2558C43.7819 85.7495 40.2873 92.9453 39.5918 102.032Z" fill="white"/>
<path fill-rule="evenodd" clip-rule="evenodd" d="M88.9769 134.316C72.8598 135.801 56.7029 124.115 45.4082 114.527C53.0976 132.877 71.2286 145.768 92.3704 145.768C116.18 145.768 136.17 129.42 141.729 107.336L140.669 109.725C139.596 112.141 136.588 112.981 134.419 111.472C134.089 113.238 133.381 114.895 132.368 116.381C129.529 119.974 125.838 122.315 121.265 123.162C120.229 123.335 119.161 123.427 118.066 123.427C115.052 123.427 112.226 122.735 109.791 121.527C110.371 123.451 105.095 132.832 88.9769 134.316Z" fill="#F7ECDF"/>
<path d="M52.0337 54.9946C49.1218 45.4597 49.867 33.7863 52.0338 27.0488C55.8278 39.7472 65.0175 47.2213 65.0175 47.2213C61.1849 48.0533 55.7094 51.2752 52.0337 54.9946Z" fill="black"/>
<path d="M111.648 88.7208C114.529 82.5749 131.458 81.4773 134.127 88.7208C135.611 92.75 129.63 101.915 125.644 102.505C119.918 103.353 108.467 95.5069 111.648 88.7208Z" fill="black"/>
<path opacity="0.5" d="M94.5713 59.2272C92.271 61.0139 83.7139 61.1647 82.8566 58.5496C81.9993 55.9345 87.5184 50.3059 91.5381 52.0856C94.8897 53.5696 97.5449 56.9175 94.5713 59.2272Z" fill="white"/>
<path opacity="0.5" d="M121.342 55.7715C119.746 58.1637 115.458 57.8979 113.752 55.7715C112.047 53.645 112.31 49.6061 116.758 49.9349C120.466 50.209 122.414 54.1636 121.342 55.7715Z" fill="white"/>
<path d="M108.904 123.185C107.948 122.335 109.145 121.243 110.309 121.774C112.623 122.829 115.263 123.427 118.066 123.427C125.27 123.427 131.4 119.477 133.678 113.961C133.885 113.462 134.628 113.512 134.628 114.052C134.628 121.262 127.911 127.106 119.625 127.106C115.425 127.106 111.627 125.605 108.904 123.185Z" fill="black"/>
<path fill-rule="evenodd" clip-rule="evenodd" d="M154.02 55.8516L48.7207 68.3077L49.3186 73.3621L65.3239 71.4688L65.9218 76.5231L70.976 75.9252L71.5739 80.9795L76.6294 80.3815L76.6288 80.3817L77.2266 85.4361L94.0746 83.4432L93.4767 78.3888L93.476 78.3887L98.5307 77.7908L97.9328 72.7364L102.987 72.1385L102.389 67.0843L154.618 60.906L154.02 55.8516ZM112.498 65.8885L149.564 61.504L150.162 66.5584L113.096 70.9429L112.498 65.8885ZM145.107 67.1564L118.15 70.3451L118.748 75.3995L123.805 74.8014L123.803 74.8019L124.401 79.8563L141.249 77.8633L140.651 72.8089L140.649 72.8088L145.705 72.2108L145.107 67.1564Z" fill="black"/>
<path d="M139.455 62.6995L144.51 62.1016L145.108 67.156L140.053 67.7538L139.455 62.6995Z" fill="white"/>
<path d="M134.998 68.3518L140.053 67.7539L140.651 72.8083L135.596 73.4062L134.998 68.3518Z" fill="white"/>
<path d="M92.2815 68.2776L97.3359 67.6797L97.9338 72.7341L92.8794 73.332L92.2815 68.2776Z" fill="white"/>
<path d="M87.8265 73.928L92.8809 73.3301L93.4788 78.3845L88.4244 78.9824L87.8265 73.928Z" fill="white"/>
<path d="M138.389 92.332C142.566 97.8386 137.99 107.813 130.059 107.666C128.33 107.634 126.564 108.279 125.379 109.537C119.117 116.19 105.919 117.025 101.832 107.825C101.42 106.897 100.762 106.071 99.8531 105.617L96.6113 103.996" stroke="black" stroke-width="3.70045" stroke-linecap="round"/>
<path d="M116.545 115.188C126.752 119.287 132.764 111.399 132.238 108.443L125.151 109.253L116.545 115.188Z" fill="black"/>
<defs>
<linearGradient id="paint0_linear_6646_26088" x1="682.5" y1="46.128" x2="682.5" y2="138.872" gradientUnits="userSpaceOnUse">
<stop stop-color="#7774F4"/>
<stop offset="0.714952" stop-color="#9157F9"/>
<stop offset="1" stop-color="#B133FF"/>
</linearGradient>
<linearGradient id="paint1_linear_6646_26088" x1="91.969" y1="182.571" x2="91.969" y2="0.50748" gradientUnits="userSpaceOnUse">
<stop stop-color="#7774F4"/>
<stop offset="0.714952" stop-color="#9157F9"/>
<stop offset="1" stop-color="#B133FF"/>
</linearGradient>
<linearGradient id="paint2_linear_6646_26088" x1="92.1607" y1="20.3756" x2="92.1607" y2="145.768" gradientUnits="userSpaceOnUse">
<stop stop-color="#FBF476"/>
<stop offset="0.449777" stop-color="#FFA725"/>
<stop offset="1" stop-color="#FFA725"/>
</linearGradient>
</defs>
</svg>
